

<svg
      version="1.0"
      xmlns="http://www.w3.org/2000/svg"
      viewBox="0 0 1280.000000 1218.000000"
      preserveAspectRatio="xMidYMid meet"
      height="30px"
      className="tool_logo"
    >
      <metadata>
        Created by potrace 1.15, written by Peter Selinger 2001-2017
      </metadata>
      <g
        transform="translate(0.000000,1218.000000) scale(0.100000,-0.100000)"
        fill="#82d8d8"
        stroke="none"
      >
        <path
          d="M6625 11955 c-351 -38 -667 -101 -1015 -202 -143 -41 -165 -51 -202
-90 -79 -83 -76 -200 7 -280 36 -34 56 -44 114 -57 91 -21 112 -20 218 5 122
29 374 23 538 -14 469 -106 940 -359 1279 -687 250 -243 380 -472 393 -697 7
-117 -7 -192 -58 -300 -58 -120 -72 -199 -66 -363 4 -108 10 -151 31 -215 l26
-80 -869 -869 -870 -870 -103 95 c-363 333 -1178 1113 -1178 1128 0 10 24 126
54 257 280 1228 328 1450 323 1490 -2 24 -16 63 -30 87 -24 40 -121 105 -1149
767 -618 399 -1147 737 -1177 752 -62 32 -119 36 -177 12 -44 -18 -675 -639
-724 -712 -36 -54 -46 -110 -30 -170 12 -43 62 -97 649 -687 l637 -640 -94
-330 c-52 -181 -98 -332 -103 -335 -5 -3 -155 -48 -335 -99 l-327 -93 -626
625 c-417 416 -640 632 -668 646 -50 25 -116 27 -169 5 -27 -11 -134 -111
-347 -322 -169 -169 -320 -324 -334 -346 -35 -50 -44 -146 -18 -197 17 -32
1415 -2051 1517 -2191 56 -76 109 -108 177 -108 24 0 421 72 883 160 823 157
840 160 856 141 10 -11 203 -218 431 -460 227 -242 420 -449 427 -459 12 -18
-2 -34 -159 -189 -95 -94 -955 -921 -1912 -1838 -957 -917 -1769 -1700 -1803
-1739 -234 -261 -253 -550 -55 -849 65 -98 956 -996 1061 -1068 98 -68 223
-125 340 -155 85 -22 112 -25 222 -21 100 3 141 9 206 30 86 29 181 85 255
151 25 22 810 847 1744 1831 934 985 1737 1830 1785 1878 l85 88 75 -79 c41
-43 845 -897 1786 -1898 941 -1000 1731 -1838 1755 -1860 166 -156 386 -270
596 -310 122 -23 346 -15 458 16 453 124 803 508 881 967 13 73 15 130 11 228
-10 231 -80 415 -232 613 -22 29 -931 895 -2020 1924 -1089 1030 -2034 1926
-2100 1990 l-120 117 845 846 c465 465 848 845 852 845 4 0 29 -13 55 -29 190
-117 438 -150 704 -95 145 30 193 27 286 -17 79 -38 204 -154 329 -308 l92
-113 -43 -53 c-91 -112 -135 -245 -135 -409 0 -124 19 -204 75 -321 203 -422
738 -569 1085 -300 30 24 258 247 506 497 444 446 452 454 493 538 55 114 71
184 71 306 0 125 -24 225 -80 333 -100 192 -262 328 -470 393 -60 18 -97 23
-190 23 -65 0 -139 -6 -169 -14 l-55 -14 -24 29 c-13 16 -52 72 -87 125 -64
96 -93 152 -224 439 -141 308 -338 588 -626 890 -394 413 -1457 1487 -1549
1564 -479 402 -979 622 -1616 712 -156 22 -706 28 -875 9z m4190 -10419 c88
-40 135 -114 135 -211 0 -91 -45 -167 -121 -206 -159 -80 -342 30 -342 206 0
172 173 284 328 211z"
        />
      </g>
    </svg>